<?xml version="1.0" encoding="UTF-8"?>
<svg viewBox="0 0 615 663" version="1.1" xmlns="http://www.w3.org/2000/svg" xmlns:xlink="http://www.w3.org/1999/xlink">
    <!-- Generator: Sketch 61.2 (89653) - https://sketch.com -->
    <title>brain-light</title>
    <desc>Created with Sketch.</desc>
    <g id="brain-light" stroke="none" stroke-width="1" fill="none" fill-rule="evenodd">
        <path d="M227.245,322.446 C224.054,337.039 211.036,348 195.5,348 C191.358,348 188,351.357 188,355.5 C188,359.643 191.358,363 195.5,363 C219.274,363 239.022,345.443 242.466,322.614 C257.022,321.04 270.459,314.554 280.861,303.937 C283.76,300.978 283.711,296.229 280.752,293.331 C277.794,290.434 273.045,290.48 270.146,293.439 C260.947,302.829 248.643,308 235.5,308 C208.757,308 187,286.243 187,259.5 C187,255.357 183.642,252 179.5,252 C175.358,252 172,255.357 172,259.5 C172,291.715 196.119,318.384 227.245,322.446 Z" id="Path" fill="#FFFFFF" fill-rule="nonzero"></path>
        <path d="M259,387.5 C259,383.357 255.642,380 251.5,380 C216.486,380 188,408.486 188,443.5 C188,443.862 188.013,444.225 188.019,444.588 C185.23,444.212 182.39,444 179.5,444 C175.358,444 172,447.357 172,451.5 C172,455.643 175.358,459 179.5,459 C206.243,459 228,480.757 228,507.5 C228,511.643 231.358,515 235.5,515 C239.642,515 243,511.643 243,507.5 C243,480.889 226.538,458.063 203.269,448.633 C203.091,446.934 203,445.215 203,443.5 C203,416.757 224.757,395 251.5,395 C255.642,395 259,391.643 259,387.5 Z" id="Path" fill="#FFFFFF" fill-rule="nonzero"></path>
        <path d="M515,323.5 C515,306.425 508.18,290.244 496.125,278.344 C498.034,272.236 499,265.918 499,259.5 C499,228.626 476.848,202.841 447.606,197.171 C449.841,191.6 451,185.628 451,179.5 C451,159.943 439.117,143.113 422.194,135.839 C393.999,113.383 363.162,100 339.5,100 C326.347,100 314.683,106.468 307.5,116.384 C300.317,106.468 288.653,100 275.5,100 C251.838,100 221.001,113.383 192.806,135.839 C175.883,143.113 164,159.943 164,179.5 C164,185.628 165.159,191.6 167.394,197.171 C138.152,202.841 116,228.626 116,259.5 C116,265.918 116.965,272.235 118.875,278.344 C106.82,290.244 100,306.425 100,323.5 C100,336.848 104.149,349.241 111.213,359.475 C103.872,370.087 100,382.466 100,395.5 C100,418.588 112.587,439.742 132.516,450.896 C132.173,453.748 132,456.626 132,459.5 C132,490.644 152.315,518.179 181.79,527.563 C194.611,549.505 217.965,563 243.5,563 C271.495,563 295.769,546.819 307.5,523.326 C319.231,546.819 343.505,563 371.5,563 C397.035,563 420.389,549.505 433.21,527.563 C462.685,518.178 483,490.643 483,459.5 C483,456.626 482.827,453.748 482.484,450.896 C502.413,439.742 515,418.588 515,395.5 C515,382.466 511.128,370.087 503.787,359.475 C510.851,349.241 515,336.848 515,323.5 Z M243.5,548 C222.471,548 203.309,536.406 193.491,517.744 C192.518,515.895 190.82,514.536 188.803,513.993 C164.19,507.369 147,484.961 147,459.5 C147,455.69 147.384,451.874 148.141,448.156 C148.843,444.709 147.054,441.236 143.839,439.806 C126.32,432.018 115,414.626 115,395.5 C115,386.801 117.256,378.486 121.561,371.121 C132.757,380.992 147.436,387 163.5,387 C167.642,387 171,383.643 171,379.5 C171,375.357 167.642,372 163.5,372 C136.757,372 115,350.243 115,323.5 C115,309.104 121.352,295.536 132.428,286.279 C134.928,284.189 135.793,280.724 134.568,277.705 C132.2,271.869 131,265.744 131,259.5 C131,232.757 152.757,211 179.5,211 C206.243,211 228,232.757 228,259.5 C228,263.643 231.358,267 235.5,267 C239.642,267 243,263.643 243,259.5 C243,225.858 216.698,198.257 183.579,196.145 C180.577,191.127 179,185.421 179,179.5 C179,166.131 187.116,154.625 198.678,149.641 C199.125,149.508 199.563,149.334 199.986,149.114 C203.568,147.752 207.447,147 211.5,147 C224.057,147 235.267,154.021 240.756,165.325 C242.566,169.052 247.054,170.606 250.779,168.795 C254.505,166.986 256.059,162.499 254.249,158.773 C247.983,145.87 236.124,136.596 222.467,133.311 C241.609,121.631 260.454,115 275.5,115 C289.009,115 300,125.99 300,139.5 L300,236.551 C293.261,231.205 284.75,228 275.5,228 C271.358,228 268,231.357 268,235.5 C268,239.643 271.358,243 275.5,243 C289.009,243 300,253.99 300,267.5 L300,447.779 C290.675,435.748 277.529,426.668 262.065,422.513 C258.066,421.442 253.951,423.81 252.876,427.81 C251.801,431.811 254.173,435.925 258.173,436.999 C282.8,443.616 300,466.027 300,491.5 C300,522.654 274.654,548 243.5,548 Z M471.161,439.807 C467.946,441.237 466.157,444.709 466.859,448.157 C467.616,451.875 468,455.691 468,459.501 C468,484.962 450.81,507.37 426.197,513.994 C424.18,514.537 422.481,515.896 421.509,517.745 C411.691,536.406 392.529,548 371.5,548 C340.346,548 315,522.654 315,491.5 C315,489.391 314.902,487.3 314.719,485.229 C314.897,484.588 315,483.915 315,483.217 L315,235.5 C315,221.99 325.991,211 339.5,211 C343.642,211 347,207.643 347,203.5 C347,199.357 343.642,196 339.5,196 C330.25,196 321.739,199.205 315,204.551 L315,139.5 C315,125.99 325.991,115 339.5,115 C354.546,115 373.391,121.631 392.533,133.311 C378.876,136.595 367.017,145.87 360.751,158.773 C358.941,162.5 360.495,166.987 364.221,168.795 C367.947,170.605 372.434,169.052 374.244,165.325 C379.733,154.021 390.943,147 403.5,147 C407.553,147 411.433,147.752 415.014,149.114 C415.436,149.334 415.874,149.507 416.319,149.64 C427.883,154.624 436,166.13 436,179.5 C436,185.421 434.423,191.127 431.421,196.145 C398.302,198.257 372,225.858 372,259.5 C372,263.643 375.358,267 379.5,267 C383.642,267 387,263.643 387,259.5 C387,232.757 408.757,211 435.5,211 C462.243,211 484,232.757 484,259.5 C484,265.744 482.8,271.869 480.433,277.705 C479.208,280.725 480.073,284.189 482.573,286.279 C493.648,295.536 500,309.104 500,323.5 C500,350.243 478.243,372 451.5,372 C447.358,372 444,375.357 444,379.5 C444,383.643 447.358,387 451.5,387 C467.564,387 482.243,380.992 493.439,371.121 C497.745,378.486 500,386.801 500,395.5 C500,414.626 488.68,432.018 471.161,439.807 Z" id="Shape" fill="#FFFFFF" fill-rule="nonzero"></path>
        <path d="M435.5,340 C419.964,340 406.946,329.039 403.755,314.446 C434.881,310.384 459,283.715 459,251.5 C459,247.357 455.642,244 451.5,244 C447.358,244 444,247.357 444,251.5 C444,278.243 422.243,300 395.5,300 C382.357,300 370.053,294.829 360.854,285.439 C357.956,282.481 353.207,282.432 350.248,285.331 C347.289,288.23 347.24,292.978 350.139,295.937 C360.541,306.554 373.978,313.04 388.534,314.614 C391.978,337.443 411.726,355 435.5,355 C439.642,355 443,351.643 443,347.5 C443,343.357 439.642,340 435.5,340 Z" id="Path" fill="#FFFFFF" fill-rule="nonzero"></path>
        <path d="M411.5,428 C408.61,428 405.77,428.212 402.981,428.588 C402.987,428.225 403,427.862 403,427.5 C403,392.486 374.514,364 339.5,364 C335.358,364 332,367.357 332,371.5 C332,375.643 335.358,379 339.5,379 C366.243,379 388,400.757 388,427.5 C388,429.214 387.909,430.934 387.731,432.633 C364.462,442.063 348,464.889 348,491.5 C348,495.643 351.358,499 355.5,499 C359.642,499 363,495.643 363,491.5 C363,464.757 384.757,443 411.5,443 C415.642,443 419,439.643 419,435.5 C419,431.357 415.642,428 411.5,428 Z" id="Path" fill="#FFFFFF" fill-rule="nonzero"></path>
    </g>
</svg>