<?xml version="1.0" encoding="UTF-8"?>
<svg width="415px" height="463px" viewBox="0 0 415 463" version="1.1" xmlns="http://www.w3.org/2000/svg" xmlns:xlink="http://www.w3.org/1999/xlink">
    <!-- Generator: Sketch 61.2 (89653) - https://sketch.com -->
    <title>brain-light</title>
    <desc>Created with Sketch.</desc>
    <g id="Page-1" stroke="none" stroke-width="1" fill="none" fill-rule="evenodd">
        <g id="brain-light" fill="#FFFFFF" fill-rule="nonzero">
            <path d="M127.245,222.446 C124.054,237.039 111.036,248 95.5,248 C91.358,248 88,251.357 88,255.5 C88,259.643 91.358,263 95.5,263 C119.274,263 139.022,245.443 142.466,222.614 C157.022,221.04 170.459,214.554 180.861,203.937 C183.76,200.978 183.711,196.229 180.752,193.331 C177.794,190.434 173.045,190.48 170.146,193.439 C160.947,202.829 148.643,208 135.5,208 C108.757,208 87,186.243 87,159.5 C87,155.357 83.642,152 79.5,152 C75.358,152 72,155.357 72,159.5 C72,191.715 96.119,218.384 127.245,222.446 Z" id="Path"></path>
            <path d="M159,287.5 C159,283.357 155.642,280 151.5,280 C116.486,280 88,308.486 88,343.5 C88,343.862 88.013,344.225 88.019,344.588 C85.23,344.212 82.39,344 79.5,344 C75.358,344 72,347.357 72,351.5 C72,355.643 75.358,359 79.5,359 C106.243,359 128,380.757 128,407.5 C128,411.643 131.358,415 135.5,415 C139.642,415 143,411.643 143,407.5 C143,380.889 126.538,358.063 103.269,348.633 C103.091,346.934 103,345.215 103,343.5 C103,316.757 124.757,295 151.5,295 C155.642,295 159,291.643 159,287.5 Z" id="Path"></path>
            <path d="M415,223.5 C415,206.425 408.18,190.244 396.125,178.344 C398.034,172.236 399,165.918 399,159.5 C399,128.626 376.848,102.841 347.606,97.171 C349.841,91.6 351,85.628 351,79.5 C351,59.943 339.117,43.113 322.194,35.839 C293.999,13.383 263.162,0 239.5,0 C226.347,0 214.683,6.468 207.5,16.384 C200.317,6.468 188.653,0 175.5,0 C151.838,0 121.001,13.383 92.806,35.839 C75.883,43.113 64,59.943 64,79.5 C64,85.628 65.159,91.6 67.394,97.171 C38.152,102.841 16,128.626 16,159.5 C16,165.918 16.965,172.235 18.875,178.344 C6.82,190.244 0,206.425 0,223.5 C0,236.848 4.149,249.241 11.213,259.475 C3.872,270.087 0,282.466 0,295.5 C0,318.588 12.587,339.742 32.516,350.896 C32.173,353.748 32,356.626 32,359.5 C32,390.644 52.315,418.179 81.79,427.563 C94.611,449.505 117.965,463 143.5,463 C171.495,463 195.769,446.819 207.5,423.326 C219.231,446.819 243.505,463 271.5,463 C297.035,463 320.389,449.505 333.21,427.563 C362.685,418.178 383,390.643 383,359.5 C383,356.626 382.827,353.748 382.484,350.896 C402.413,339.742 415,318.588 415,295.5 C415,282.466 411.128,270.087 403.787,259.475 C410.851,249.241 415,236.848 415,223.5 Z M143.5,448 C122.471,448 103.309,436.406 93.491,417.744 C92.518,415.895 90.82,414.536 88.803,413.993 C64.19,407.369 47,384.961 47,359.5 C47,355.69 47.384,351.874 48.141,348.156 C48.843,344.709 47.054,341.236 43.839,339.806 C26.32,332.018 15,314.626 15,295.5 C15,286.801 17.256,278.486 21.561,271.121 C32.757,280.992 47.436,287 63.5,287 C67.642,287 71,283.643 71,279.5 C71,275.357 67.642,272 63.5,272 C36.757,272 15,250.243 15,223.5 C15,209.104 21.352,195.536 32.428,186.279 C34.928,184.189 35.793,180.724 34.568,177.705 C32.2,171.869 31,165.744 31,159.5 C31,132.757 52.757,111 79.5,111 C106.243,111 128,132.757 128,159.5 C128,163.643 131.358,167 135.5,167 C139.642,167 143,163.643 143,159.5 C143,125.858 116.698,98.257 83.579,96.145 C80.577,91.127 79,85.421 79,79.5 C79,66.131 87.116,54.625 98.678,49.641 C99.125,49.508 99.563,49.334 99.986,49.114 C103.568,47.752 107.447,47 111.5,47 C124.057,47 135.267,54.021 140.756,65.325 C142.566,69.052 147.054,70.606 150.779,68.795 C154.505,66.986 156.059,62.499 154.249,58.773 C147.983,45.87 136.124,36.596 122.467,33.311 C141.609,21.631 160.454,15 175.5,15 C189.009,15 200,25.99 200,39.5 L200,136.551 C193.261,131.205 184.75,128 175.5,128 C171.358,128 168,131.357 168,135.5 C168,139.643 171.358,143 175.5,143 C189.009,143 200,153.99 200,167.5 L200,347.779 C190.675,335.748 177.529,326.668 162.065,322.513 C158.066,321.442 153.951,323.81 152.876,327.81 C151.801,331.811 154.173,335.925 158.173,336.999 C182.8,343.616 200,366.027 200,391.5 C200,422.654 174.654,448 143.5,448 Z M371.161,339.807 C367.946,341.237 366.157,344.709 366.859,348.157 C367.616,351.875 368,355.691 368,359.501 C368,384.962 350.81,407.37 326.197,413.994 C324.18,414.537 322.481,415.896 321.509,417.745 C311.691,436.406 292.529,448 271.5,448 C240.346,448 215,422.654 215,391.5 C215,389.391 214.902,387.3 214.719,385.229 C214.897,384.588 215,383.915 215,383.217 L215,135.5 C215,121.99 225.991,111 239.5,111 C243.642,111 247,107.643 247,103.5 C247,99.357 243.642,96 239.5,96 C230.25,96 221.739,99.205 215,104.551 L215,39.5 C215,25.99 225.991,15 239.5,15 C254.546,15 273.391,21.631 292.533,33.311 C278.876,36.595 267.017,45.87 260.751,58.773 C258.941,62.5 260.495,66.987 264.221,68.795 C267.947,70.605 272.434,69.052 274.244,65.325 C279.733,54.021 290.943,47 303.5,47 C307.553,47 311.433,47.752 315.014,49.114 C315.436,49.334 315.874,49.507 316.319,49.64 C327.883,54.624 336,66.13 336,79.5 C336,85.421 334.423,91.127 331.421,96.145 C298.302,98.257 272,125.858 272,159.5 C272,163.643 275.358,167 279.5,167 C283.642,167 287,163.643 287,159.5 C287,132.757 308.757,111 335.5,111 C362.243,111 384,132.757 384,159.5 C384,165.744 382.8,171.869 380.433,177.705 C379.208,180.725 380.073,184.189 382.573,186.279 C393.648,195.536 400,209.104 400,223.5 C400,250.243 378.243,272 351.5,272 C347.358,272 344,275.357 344,279.5 C344,283.643 347.358,287 351.5,287 C367.564,287 382.243,280.992 393.439,271.121 C397.745,278.486 400,286.801 400,295.5 C400,314.626 388.68,332.018 371.161,339.807 Z" id="Shape"></path>
            <path d="M335.5,240 C319.964,240 306.946,229.039 303.755,214.446 C334.881,210.384 359,183.715 359,151.5 C359,147.357 355.642,144 351.5,144 C347.358,144 344,147.357 344,151.5 C344,178.243 322.243,200 295.5,200 C282.357,200 270.053,194.829 260.854,185.439 C257.956,182.481 253.207,182.432 250.248,185.331 C247.289,188.23 247.24,192.978 250.139,195.937 C260.541,206.554 273.978,213.04 288.534,214.614 C291.978,237.443 311.726,255 335.5,255 C339.642,255 343,251.643 343,247.5 C343,243.357 339.642,240 335.5,240 Z" id="Path"></path>
            <path d="M311.5,328 C308.61,328 305.77,328.212 302.981,328.588 C302.987,328.225 303,327.862 303,327.5 C303,292.486 274.514,264 239.5,264 C235.358,264 232,267.357 232,271.5 C232,275.643 235.358,279 239.5,279 C266.243,279 288,300.757 288,327.5 C288,329.214 287.909,330.934 287.731,332.633 C264.462,342.063 248,364.889 248,391.5 C248,395.643 251.358,399 255.5,399 C259.642,399 263,395.643 263,391.5 C263,364.757 284.757,343 311.5,343 C315.642,343 319,339.643 319,335.5 C319,331.357 315.642,328 311.5,328 Z" id="Path"></path>
        </g>
    </g>
</svg>